<svg xmlns="http://www.w3.org/2000/svg" xmlns:xlink="http://www.w3.org/1999/xlink" version="1.1" x="0px" y="0px" viewBox="0 0 100 100" enable-background="new 0 0 100 100" xml:space="preserve"><path d="M90,48.115c0-2.069-0.422-4.046-1.158-5.894c0.294-1.271,0.457-2.593,0.457-3.949c0-5.244-2.321-9.979-6.034-13.134  c-2.146,1.823-3.818,4.166-4.868,6.832c-2.714-1.152-5.75-1.816-8.97-1.816c-3.453,0-6.703,0.753-9.561,2.064  c-1.027-2.765-2.726-5.205-4.93-7.08c-3.715,3.155-6.081,7.845-6.081,13.134c0,1.758,0.284,3.441,0.768,5.034  c-0.486,1.531-0.768,3.14-0.768,4.809c0,2.628,0.649,5.122,1.813,7.368h-10.41C30.727,55.483,23,63.211,23,72.742  c0,0.089,0.013,0.176,0.014,0.265c-1.037-0.55-2.054-1.233-2.991-2.096c-3.364-3.097-5.035-7.861-4.963-14.159  c0.071-6.255,1.775-10.762,5.066-13.396c5.142-4.115,12.737-2.559,12.806-2.545c1.364,0.3,2.713-0.565,3.01-1.93  c0.298-1.364-0.565-2.712-1.93-3.011c-0.403-0.088-9.963-2.098-17.009,3.508c-4.556,3.625-6.911,9.452-7,17.317  c-0.089,7.791,2.13,13.826,6.594,17.936c2.36,2.174,5.045,3.512,7.578,4.33C26.672,85.415,32.922,90,40.258,90h30.473  c9.532,0,17.258-7.727,17.258-17.258c0-4.454-1.701-8.5-4.471-11.561C87.504,57.908,90,53.27,90,48.115z"></path></svg>